PathFileType	4	(X/Y/Z)	Patient4_TMGait_0pt4_01_right_41.trc.trc
DataRate	CameraRate	NumFrames	NumMarkers	Units	OrigDataRate	OrigDataStartFrame	OrigNumFrames
75.268817204301	75.268817204301	4	33	mm	75.268817204301	89	       141
Frame#	Time	Sacral			L.Shoulder			Chest			R.Shoulder			Neck			R.ASIS			L.ASIS			R.Thigh.Superior			R.Thigh.Lateral			R.Thigh.Inferior			R.Patella			L.Thigh.Superior			L.Thigh.Lateral			L.Thigh.Inferior			L.Patella			L.Shank.Superior			L.Shank.Lateral			L.Shank.Inferior			R.Shank.Superior			R.Shank.Lateral			R.Shank.Inferior			R.Heel			R.Midfoot.Superior			R.Midfoot.Lateral			R.Toe			L.Heel			L.Midfoot.Lateral			L.Midfoot.Superior			L.Toe			L.Elbow			L.Wrist			R.Elbow			R.Wrist			
		X1	Y1	Z1	X2	Y2	Z2	X3	Y3	Z3	X4	Y4	Z4	X5	Y5	Z5	X6	Y6	Z6	X7	Y7	Z7	X8	Y8	Z8	X9	Y9	Z9	X10	Y10	Z10	X11	Y11	Z11	X12	Y12	Z12	X13	Y13	Z13	X14	Y14	Z14	X15	Y15	Z15	X16	Y16	Z16	X17	Y17	Z17	X18	Y18	Z18	X19	Y19	Z19	X20	Y20	Z20	X21	Y21	Z21	X22	Y22	Z22	X23	Y23	Z23	X24	Y24	Z24	X25	Y25	Z25	X26	Y26	Z26	X27	Y27	Z27	X28	Y28	Z28	X29	Y29	Z29	X30	Y30	Z30	X31	Y31	Z31	X32	Y32	Z32	X33	Y33	Z33	

89	54.639142857143	870.438971819849	1006.073868557106	462.701702442246	1027.163976870255	1430.354765984065	256.472294371875	1143.885780205991	1370.940777888123	410.750594186035	1072.796059951628	1447.883372334644	588.739657038838	1020.146717500546	1495.958232295748	410.501817953018	1105.516050681898	943.392824263250	563.713180155217	1076.022160968476	961.542172964154	291.573613057322	1138.399665034008	735.738485459776	542.874430460776	1058.510551252301	628.746263667807	612.939795406615	1133.366860725915	568.129084394736	535.631206035568	1124.580359376425	462.528184191551	556.472670411883	1139.542069694297	758.746738154819	318.607714530938	1059.498992381539	637.202334795874	259.208840449763	1153.374593047173	565.842341276710	317.004341946528	1159.219629201591	495.676618812616	324.791391597214	1133.444053033032	421.924439894567	316.636660465326	1044.872594119395	306.732111917118	265.359388335552	1100.339446112999	194.798247592413	332.363738292670	1052.870109180951	392.836731071594	565.040062361768	939.501123793545	342.251256226795	631.899261796596	931.892007793620	233.246736330984	579.564479068372	735.685475634490	142.166167582001	559.161441771057	911.779631203688	116.795160010638	594.940067155678	806.647389754839	96.926530354044	632.107203241021	996.688139340623	33.485520186165	620.842530565843	976.880446781444	38.630381561345	375.364382419790	1047.757169373288	35.350903059140	292.104758045157	1131.387780231522	96.803317220114	316.992885883469	1259.209112492816	45.918880437186	283.523476119116	962.131943674091	1079.838359153546	152.368253678023	1057.530714041794	837.264513748111	120.043811198158	1096.383088239852	1101.046959992565	712.429713480008	1272.166269572361	920.837120947863	650.390177515603	
90	54.652428571429	869.728484543268	1006.036468116451	458.863614828659	1029.078592524919	1430.439497360446	253.143455695094	1143.950357854770	1371.174057758135	408.843763216180	1070.941160804973	1448.244685760223	586.003393331178	1020.406527656969	1496.209103052797	407.214632366939	1104.234884306513	944.102453939664	561.737318467252	1076.787935000372	961.834834557101	289.470067728515	1143.344000941059	738.601154385618	540.795049096300	1066.843956545552	629.637466517540	610.855934512270	1143.971363624245	570.667741345576	533.889648110864	1136.743036366980	463.788005639833	555.177441582931	1138.816161571152	757.914025848077	316.471444808218	1057.968525476584	637.108089793211	257.297570446552	1150.717222195952	565.089686635888	315.834636035599	1155.861133774153	494.994467414497	323.822857196189	1129.880385753574	421.350941990728	315.738203433490	1041.129790361611	306.369294497253	264.668524951701	1095.774399240897	194.428953518486	332.147767316876	1063.209805944142	394.614447888784	563.592901722061	948.128839289987	347.717286384762	630.266355456513	937.483700946052	238.705004004834	578.713154022414	739.004758532573	156.393782770852	558.131212078706	913.174534162287	121.207572403386	594.549382863494	806.985435224440	107.420797995841	631.344454792572	992.536620552442	32.466962256256	620.841454122522	971.518474900006	38.617096631779	375.306954332029	1042.387059546335	35.322975276584	292.046374176340	1126.099455849937	96.634396056031	316.995036898476	1253.912367477049	45.503444165445	283.473211969272	967.302510967434	1079.835427468684	147.057970656969	1070.348410975633	839.994185050825	116.510530906764	1089.365691744023	1101.164465438786	710.339092740330	1257.173832324494	910.924309057379	654.384724223189	
91	54.665714285714	868.914974635556	1005.873874841852	455.200757748896	1030.886432891685	1430.410997036052	250.055416071960	1143.912339178829	1371.283965168949	407.147212803854	1068.995114453212	1448.449499490851	583.484274628034	1020.669025418622	1496.365089726883	404.154020099185	1102.862324529672	944.759132266548	559.948899583405	1077.390173067111	962.064777045694	287.512502656508	1148.091003528588	741.722731223776	538.671360076352	1075.148069816738	630.866556547492	608.823985731023	1154.386298432936	573.670028884492	532.085503950751	1148.923005585569	465.624923709664	553.700446264786	1138.085359951051	757.154810575721	314.601716696033	1056.546407146906	636.999419991635	255.537638132491	1148.202720225558	564.377789368609	314.808444368628	1152.677345788643	494.315857307603	322.992184100554	1126.457830890155	420.768802791132	314.958388908305	1037.481235479149	306.043948357688	264.042862997284	1091.265495522513	194.067455330555	331.988344542412	1073.768979959425	396.822979629715	562.031926986163	957.174553519090	353.401442985076	628.493100782514	943.669432102679	244.466703399541	577.710928929275	743.459547828306	170.780933912307	556.784904251221	915.266789129590	125.976423321101	594.004835521489	808.258314221613	118.277628839557	630.345648036125	988.928106804266	31.562757233174	620.847205960030	966.178991465341	38.606801334228	375.246754102312	1037.043092938648	35.312581042837	291.987205089375	1120.833684660451	96.492970305710	317.002594574247	1248.635943962211	45.126267654171	283.426437927308	972.828847122886	1079.759835185228	141.756655429228	1083.456442063006	842.928253260015	113.207038656076	1082.015999379100	1101.137294947021	708.325211141888	1241.401114725546	901.473668159342	658.965141791843	
92	54.679000000000	868.024979190781	1005.643729894370	451.709547188952	1032.561341452000	1430.322798674859	247.228752468282	1143.774774261676	1371.320055400270	405.655836619469	1066.976189298189	1448.534283495785	581.186224291193	1020.922247678652	1496.465915867026	401.338185913181	1101.426152272661	945.398502326169	558.331091033549	1077.856357604447	962.253268571218	285.694084876099	1152.510323880344	745.089428044846	536.488750437635	1083.253945526647	632.474449774665	606.851871977931	1164.400163239550	577.145310570975	530.207929768249	1160.923663859976	468.049520243108	552.079264068168	1137.371133017968	756.465221016810	312.971027515078	1055.200451281535	636.869812931420	253.951861776822	1145.822117219220	563.696222137402	313.917140546144	1149.667058225375	493.641471995139	322.313019665076	1123.171423412160	420.181004383593	314.309683338130	1033.912895826184	305.762451180079	263.494542819607	1086.797726640634	193.716794964700	331.890457912543	1084.375406165563	399.466761476306	560.404205133797	966.448574906797	359.224207239364	626.591620962744	950.389065148938	250.405399880576	576.589638832459	748.988895039543	184.844095487186	555.133721086031	918.145529876034	130.966039489349	593.320646716941	810.537379823144	129.108657721711	629.105021859130	986.156587148991	30.916261404370	620.822210664108	960.858208011206	38.599495004326	375.184956971588	1031.721778261725	35.317897546553	291.928457094067	1115.586380967337	96.380173223529	317.015180716929	1243.375412825965	44.794626295192	283.380813681741	978.705707677743	1079.663378792553	136.531922857788	1096.807455561363	846.112225284203	110.188494458933	1074.371822321614	1101.041023558512	706.418038916808	1224.917593737141	892.630842900416	664.065472721777	
